<svg width="43" height="43" viewBox="0 0 43 43" fill="none" xmlns="http://www.w3.org/2000/svg">
<path d="M21.5001 43C21.5698 43 21.6404 42.9954 21.7124 42.9847C22.261 42.9021 22.7139 42.5101 22.8735 41.9785L31.4736 13.3116C31.6246 12.807 31.4869 12.2594 31.1137 11.8868C30.7401 11.5136 30.1891 11.3753 29.6889 11.5269L1.02195 20.127C0.49004 20.2866 0.0977783 20.7396 0.0157852 21.2881C-0.0658684 21.8377 0.176754 22.3846 0.638676 22.6929L7.78375 27.4564L0.420006 34.8204C-0.139896 35.3803 -0.139896 36.2871 0.420006 36.847L6.15332 42.5803C6.71322 43.1402 7.62003 43.1402 8.17997 42.5803L15.5437 35.2166L20.3072 42.3616C20.5755 42.7639 21.0254 42.9999 21.5 42.9999L21.5001 43ZM15.7665 31.5332C15.3882 31.5332 15.0229 31.6829 14.753 31.9532L7.16661 39.5399L3.45996 35.8332L11.0466 28.2465C11.3506 27.9426 11.5016 27.5193 11.4596 27.0917C11.4176 26.6645 11.186 26.2785 10.8283 26.0406L4.7634 21.9976L27.9623 15.0379L21.0029 38.2368L16.9599 32.1718C16.722 31.8139 16.3354 31.5826 15.9088 31.5406C15.8611 31.5356 15.8138 31.5336 15.7668 31.5336L15.7665 31.5332ZM34.8198 8.1799C34.2599 7.62 34.2599 6.71319 34.8198 6.15325L37.6866 3.28638C38.2465 2.72648 39.1533 2.72648 39.7133 3.28638C40.2732 3.84628 40.2732 4.75309 39.7133 5.31303L36.8464 8.1799C36.5665 8.45985 36.2002 8.59983 35.8333 8.59983C35.4663 8.59983 35.0997 8.45986 34.8198 8.1799ZM35.8333 12.9001C35.8333 12.1085 36.4748 11.4666 37.2667 11.4666H41.5666C42.3581 11.4666 43 12.1082 43 12.9001C43 13.6916 42.3584 14.3335 41.5666 14.3335H37.2667C36.4748 14.3332 35.8333 13.6916 35.8333 12.9001ZM37.6866 22.5137L34.8198 19.6469C34.2599 19.087 34.2599 18.1802 34.8198 17.6202C35.3797 17.0603 36.2865 17.0603 36.8464 17.6202L39.7133 20.4871C40.2732 21.047 40.2732 21.9538 39.7133 22.5137C39.4333 22.7937 39.0667 22.9337 38.6998 22.9337C38.3328 22.9337 37.9666 22.7937 37.6866 22.5137ZM23.3531 8.18024L20.4863 5.31337C19.9264 4.75347 19.9264 3.84666 20.4863 3.28672C21.0462 2.72678 21.953 2.72682 22.5129 3.28672L25.3798 6.15359C25.9397 6.71349 25.9397 7.6203 25.3798 8.18024C25.0998 8.46019 24.7332 8.60017 24.3663 8.60017C23.9993 8.60017 23.6331 8.4602 23.3531 8.18024ZM28.6665 5.73365V1.43343C28.6665 0.64191 29.3081 0 30.0999 0C30.8915 0 31.5334 0.641552 31.5334 1.43343V5.73331C31.5334 6.52483 30.8918 7.16674 30.0999 7.16674C29.3081 7.16674 28.6665 6.52519 28.6665 5.73365Z" fill="white"/>
</svg>
