<svg width="47" height="31" viewBox="0 0 47 31" fill="none" xmlns="http://www.w3.org/2000/svg">
<path d="M2.11437 0C1.20574 0 0.548515 0.80618 0.55177 1.5626V28.6461C0.55177 29.4642 1.29618 30.2087 2.11437 30.2087H44.8229C45.6411 30.2087 46.3855 29.4643 46.3855 28.6461V1.5626C46.3855 0.744433 45.6411 0 44.8229 0H2.11437ZM6.42754 3.1252H40.5097L23.4682 17.2529L6.42661 3.1252H6.42754ZM3.67697 4.88284L15.9985 15.1042L3.67697 25.4391V4.88191V4.88284ZM43.2605 4.88284V25.4401L30.939 15.1052L43.2605 4.88377V4.88284ZM18.4557 17.1383L22.4761 20.4749H22.4757C22.7555 20.7052 23.1064 20.8309 23.4687 20.8309C23.8309 20.8309 24.1818 20.7052 24.4616 20.4749L28.482 17.1383L40.3468 27.0835H6.59013L18.4557 17.1383Z" fill="white"/>
</svg>
