<svg width="45" height="43" viewBox="0 0 45 43" fill="none" xmlns="http://www.w3.org/2000/svg">
<path d="M43.8685 12.6279L42.4515 11.2109C41.725 10.4867 40.7413 10.0799 39.7158 10.0799C38.6902 10.0799 37.7066 10.4867 36.9804 11.2109L33.598 14.593V1.28957C33.598 0.577235 33.0207 0 32.3084 0H15.2261C15.2004 0 15.177 0.0122813 15.1513 0.0138161H15.1517C15.0496 0.0203406 14.949 0.0387634 14.8516 0.0694675C14.8105 0.0798302 14.7706 0.0921118 14.731 0.106312C14.5975 0.159661 14.4739 0.234886 14.3657 0.328914L0.429473 12.8119H0.429089C0.343502 12.8914 0.269045 12.982 0.207637 13.0818C0.191134 13.1075 0.176549 13.1339 0.161581 13.1612L0.161965 13.1608C0.115142 13.2464 0.0782967 13.3366 0.0521968 13.4306C0.0472074 13.4483 0.0395309 13.4652 0.0349258 13.4821C0.0122815 13.5772 0.000384169 13.6743 0 13.7722V41.6102C0 42.3225 0.577236 42.8998 1.28957 42.8998H32.308C33.0203 42.8998 33.5976 42.3225 33.5976 41.6102V28.3696L43.8689 18.0993C44.5931 17.3727 45 16.3891 45 15.3631C44.9996 14.3376 44.5928 13.3539 43.8685 12.6278V12.6279ZM40.6274 13.0344L42.044 14.4518V14.4514C42.5471 14.9553 42.5471 15.7713 42.0447 16.2756L41.1566 17.1644L37.9155 13.9233L38.8043 13.0344C39.3086 12.5324 40.1235 12.5324 40.6278 13.034L40.6274 13.0344ZM25.859 32.4619L21.5129 33.5619L22.6178 29.2215L36.0912 15.7471L39.3324 18.9882L25.859 32.4619ZM12.0947 5.82656L13.937 4.17582V12.4836H4.66279L12.0947 5.82656ZM31.0192 40.3212H2.57993V15.0633H15.226C15.9384 15.0633 16.5156 14.4857 16.5156 13.7737V2.5798H31.0187V17.1723L20.543 27.648C20.3787 27.8115 20.2621 28.0169 20.2049 28.2414L18.4782 35.0255C18.3657 35.4661 18.4939 35.9331 18.8152 36.2548C19.1364 36.5764 19.6035 36.7054 20.0445 36.5937L26.8358 34.875H26.8354C27.0607 34.8182 27.2665 34.7012 27.4307 34.5369L31.0181 30.9495L31.0192 40.3212Z" fill="white"/>
</svg>
