<svg width="60" height="65" viewBox="0 0 60 65" fill="none" xmlns="http://www.w3.org/2000/svg">
<path d="M52.7522 22.8059C48.7971 22.8059 45.5611 26.0418 45.5611 29.997C45.5611 31.4352 45.9721 32.7707 46.7425 33.9007L29.0213 51.2627C27.8912 50.5436 26.5557 50.0813 25.1175 50.0813C23.6279 50.0813 22.2411 50.5436 21.0598 51.3141L13.2009 43.5066C13.92 42.3766 14.3822 41.0411 14.3822 39.6029C14.3822 35.6477 11.1463 32.4118 7.1911 32.4118C3.23593 32.4118 0 35.6477 0 39.6029C0 41.0411 0.41092 42.3766 1.18134 43.5066C1.69499 44.2771 2.41409 44.9963 3.28736 45.6127C4.41739 46.3318 5.75288 46.794 7.1911 46.794C8.62931 46.794 9.9648 46.3831 11.0948 45.6127L19.005 53.5229C18.3373 54.6015 17.9264 55.937 17.9264 57.3239C17.9264 61.279 21.1623 64.515 25.1175 64.515C29.0726 64.515 32.3086 61.279 32.3086 57.3239C32.3086 55.8856 31.8976 54.5502 31.1272 53.4201L48.7968 36.0582C49.9268 36.7773 51.2623 37.2395 52.7005 37.2395C56.6557 37.2395 59.8916 34.0036 59.8916 30.0484C59.943 26.042 56.707 22.8059 52.7519 22.8059H52.7522Z" fill="#1C91D0"/>
<path d="M32.1042 28.5587C31.4365 29.0724 30.1524 29.3292 28.3032 29.3292C26.6595 29.3292 25.1186 29.1238 23.6804 28.7128C22.1907 28.3019 20.958 27.8396 19.8794 27.326L17.9275 32.514C18.5952 32.8735 19.6226 33.2844 21.0094 33.7467C22.3962 34.2604 24.194 34.5686 26.4028 34.774V40.1674H32.1042V34.62C33.5939 34.3632 34.8266 34.0036 35.8539 33.4387C36.8812 32.8737 37.7031 32.2573 38.3194 31.4868C38.9358 30.7162 39.3981 29.8945 39.6549 29.0213C39.9118 28.148 40.0658 27.2235 40.0658 26.2989C40.0658 24.9634 39.809 23.7819 39.3467 22.806C38.8845 21.8302 38.2167 20.9569 37.3949 20.1865C36.573 19.4674 35.5972 18.7997 34.467 18.2346C33.3369 17.6695 32.1042 17.1046 30.7687 16.6424C29.8955 16.3342 29.1251 16.0774 28.5087 15.8205C27.8923 15.5637 27.3786 15.3069 26.9677 15.0501C26.5568 14.7932 26.2486 14.485 26.0432 14.1255C25.8377 13.7659 25.735 13.355 25.735 12.8927C25.735 12.1222 26.0432 11.4545 26.7109 10.9922C27.3273 10.5299 28.406 10.2731 29.8442 10.2731C31.2824 10.2731 32.6692 10.4271 34.0048 10.7353C35.3404 11.0435 36.4704 11.4031 37.4462 11.814L38.833 6.36931C38.1653 6.06112 37.2921 5.75293 36.1106 5.44474C34.9806 5.13656 33.6451 4.9311 32.0529 4.777V0H26.3514V4.87961C25.0159 5.13644 23.8859 5.49599 22.91 6.00964C21.9341 6.52329 21.1636 7.19098 20.5472 7.9102C19.9308 8.68068 19.5199 9.50246 19.2117 10.4271C18.9035 11.3518 18.8008 12.3277 18.8008 13.3036C18.8008 14.5878 19.0576 15.7177 19.5199 16.6424C19.9822 17.5671 20.5986 18.3375 21.3691 18.9538C22.1395 19.5702 23.0127 20.1352 23.9373 20.5461C24.9132 21.0084 25.8892 21.3679 26.8652 21.7274C27.8925 22.087 28.817 22.4465 29.5876 22.7547C30.3581 23.0629 31.0258 23.4225 31.5394 23.7307C32.0531 24.0902 32.464 24.4498 32.7208 24.8607C32.9775 25.2716 33.1317 25.7853 33.1317 26.3503C33.1317 27.3263 32.7721 28.0454 32.1044 28.559L32.1042 28.5587Z" fill="#64C5CD"/>
</svg>
