<svg width="65" height="65" viewBox="0 0 65 65" fill="none" xmlns="http://www.w3.org/2000/svg">
<path d="M64.3712 60.7774C64.8004 60.3581 65.0095 59.8772 64.9991 59.3328C64.9991 58.746 64.7905 58.2495 64.3712 57.8406L45.2641 38.7335C48.1319 34.5675 49.5663 29.9044 49.5663 24.7427C49.5663 21.4356 48.9336 18.2798 47.6664 15.2758C46.4423 12.2603 44.642 9.58171 42.2659 7.23682C39.9106 4.91396 37.2409 3.12448 34.2582 1.86758C31.2437 0.622679 28.0728 0 24.7443 0C21.4472 0 18.2762 0.622719 15.2293 1.86865C12.2461 3.12556 9.58265 4.91436 7.23735 7.23842C4.89353 9.56235 3.09737 12.2421 1.85196 15.2769C0.617486 18.2809 0 21.4368 0 24.7443C0 28.0728 0.617499 31.2448 1.8525 34.2592C3.09792 37.2945 4.89299 39.9691 7.23789 42.282L7.23841 42.2659C9.5837 44.642 12.2473 46.4423 15.2294 47.6664C18.2647 48.9321 21.4367 49.5662 24.7444 49.5662C29.8524 49.5662 34.5106 48.1279 38.7179 45.249L57.8397 64.3721C58.2282 64.7914 58.7086 65 59.2859 65C59.9138 65 60.4061 64.7856 60.7608 64.3564L64.3714 60.7776M38.8584 10.646C38.8631 10.6518 38.8683 10.6575 38.874 10.6617C40.752 12.5606 42.1957 14.7073 43.2074 17.0974L43.2231 17.1131C44.2072 19.5429 44.698 22.0864 44.698 24.7436C44.698 27.4306 44.2062 29.9944 43.2231 32.4373C43.22 32.4441 43.2142 32.4488 43.2074 32.453C42.1941 34.8598 40.7448 36.9951 38.8589 38.86V38.8757C36.9558 40.7537 34.7998 42.1984 32.3893 43.2091L32.3736 43.2247C29.9542 44.2073 27.4107 44.6997 24.7431 44.6997C22.0859 44.6997 19.5423 44.2094 17.1125 43.2247L17.0969 43.2091C14.7056 42.1973 12.5601 40.7531 10.6611 38.8757L10.6455 38.86C8.76802 36.9914 7.32381 34.8291 6.31205 32.3747V32.3904C5.30861 29.9636 4.80642 27.4154 4.80481 24.7441C4.80534 22.0848 5.30809 19.5412 6.31205 17.1141C7.32278 14.7139 8.76695 12.5637 10.6455 10.6616C10.6502 10.6569 10.657 10.6517 10.6611 10.646C12.5626 8.78881 14.7135 7.35929 17.1136 6.35954C19.5403 5.35559 22.0843 4.85284 24.7441 4.85231C27.4149 4.85387 29.9637 5.35611 32.3904 6.35954H32.3737C34.7926 7.35985 36.9539 8.78788 38.8585 10.646L38.8584 10.646Z" fill="#1C91D0"/>
<path d="M26.9407 13.5658C26.9303 13.5543 26.9199 13.5449 26.9094 13.5345C26.0406 12.676 24.9938 12.2468 23.7692 12.2468C22.5551 12.2468 21.5135 12.6818 20.6447 13.5507H20.6291C19.7706 14.4195 19.3409 15.4663 19.3409 16.6909C19.3409 17.2839 19.4405 17.8336 19.6392 18.3395L15.118 22.8763C14.4312 22.5107 13.6677 22.3266 12.8259 22.3266C11.4762 22.3266 10.3252 22.808 9.37177 23.7712C8.40902 24.7235 7.92822 25.8798 7.92822 27.241C7.92822 28.6016 8.40908 29.7641 9.37177 30.7274C10.3241 31.6693 11.4757 32.1397 12.8259 32.1397C14.1971 32.1397 15.359 31.6687 16.3123 30.7274H16.328C17.2803 29.7646 17.757 28.6016 17.757 27.241C17.757 26.4023 17.5739 25.6377 17.2073 24.9488L21.6028 20.5689C22.25 20.935 22.9724 21.1186 23.7697 21.1186C24.6365 21.1186 25.4162 20.9032 26.1093 20.474L30.585 24.9488C30.208 25.6414 30.0197 26.4054 30.0197 27.241C30.0197 28.5923 30.511 29.7532 31.4946 30.7263C32.4469 31.6693 33.6037 32.1397 34.9643 32.1397C36.325 32.1397 37.4808 31.6688 38.4341 30.7263C39.3864 29.7636 39.8631 28.6016 39.8631 27.241C39.8631 26.4112 39.6858 25.6582 39.3285 24.9801L42.2965 22.0125C42.1254 20.8713 41.8433 19.7567 41.4495 18.6683L37.2408 22.8756C36.5581 22.5095 35.7992 22.3259 34.9642 22.3259C34.1267 22.3259 33.3621 22.51 32.6726 22.8756L27.9632 18.1504C28.1202 17.6988 28.1989 17.2112 28.1989 16.6901C28.1974 15.4759 27.7786 14.4344 26.9405 13.5656M37.3978 27.24C37.3978 27.9206 37.162 28.5011 36.6911 28.983C36.2201 29.4436 35.6444 29.6741 34.9633 29.6741C34.2822 29.6741 33.7012 29.4384 33.2213 28.9674C32.7295 28.486 32.4834 27.9102 32.4834 27.24C32.4834 26.5594 32.7295 25.9789 33.2213 25.497C33.7131 25.0161 34.2941 24.7747 34.9633 24.7747C35.6235 24.7747 36.1983 25.0156 36.6911 25.497C37.162 25.9789 37.3978 26.5604 37.3978 27.24M22.3882 15.2765C22.7653 14.8891 23.2258 14.695 23.7707 14.695C24.3048 14.695 24.7695 14.8885 25.1674 15.2765L25.1831 15.2922C25.5601 15.6797 25.7484 16.1454 25.7484 16.6894C25.7484 17.2339 25.5643 17.6996 25.1987 18.0866C25.1872 18.0866 25.1778 18.0918 25.1674 18.1023C24.7799 18.4684 24.3142 18.6525 23.7702 18.6525C23.2257 18.6525 22.7652 18.4684 22.3877 18.1023L22.372 18.0866C21.995 17.6991 21.8067 17.2334 21.8067 16.6894C21.8067 16.1449 22.0002 15.6792 22.3877 15.2922L22.3882 15.2765M11.1146 28.983L11.099 28.9674C10.628 28.4964 10.3923 27.9207 10.3923 27.24C10.3923 26.5489 10.6322 25.969 11.1146 25.497C11.5855 25.0161 12.1561 24.7746 12.8262 24.7746C13.5069 24.7746 14.0931 25.0156 14.5849 25.497C15.0558 25.9783 15.2916 26.5593 15.2916 27.24C15.2916 27.9206 15.0558 28.4969 14.5849 28.9674V28.983C14.1035 29.4435 13.5173 29.6741 12.8262 29.6741C12.1571 29.6741 11.586 29.4435 11.1146 28.983Z" fill="#64C5CD"/>
</svg>
