<svg width="60" height="65" viewBox="0 0 60 65" fill="none" xmlns="http://www.w3.org/2000/svg">
<path d="M52.7522 22.8059C48.7971 22.8059 45.5611 26.0418 45.5611 29.997C45.5611 31.4352 45.9721 32.7707 46.7425 33.9007L29.0213 51.2627C27.8912 50.5436 26.5557 50.0813 25.1175 50.0813C23.6279 50.0813 22.2411 50.5436 21.0598 51.3141L13.2009 43.5066C13.92 42.3766 14.3822 41.0411 14.3822 39.6029C14.3822 35.6477 11.1463 32.4118 7.1911 32.4118C3.23593 32.4118 0 35.6477 0 39.6029C0 41.0411 0.41092 42.3766 1.18134 43.5066C1.69499 44.2771 2.41409 44.9963 3.28736 45.6127C4.41739 46.3318 5.75288 46.794 7.1911 46.794C8.62931 46.794 9.9648 46.3831 11.0948 45.6127L19.005 53.5229C18.3373 54.6015 17.9264 55.937 17.9264 57.3239C17.9264 61.279 21.1623 64.515 25.1175 64.515C29.0726 64.515 32.3086 61.279 32.3086 57.3239C32.3086 55.8856 31.8976 54.5502 31.1272 53.4201L48.7968 36.0582C49.9268 36.7773 51.2623 37.2395 52.7005 37.2395C56.6557 37.2395 59.8916 34.0036 59.8916 30.0484C59.943 26.042 56.707 22.8059 52.7519 22.8059H52.7522Z" fill="#1C91D0"/>
<path d="M32.1041 28.5587C31.4364 29.0724 30.1522 29.3292 28.3031 29.3292C26.6594 29.3292 25.1185 29.1238 23.6802 28.7128C22.1906 28.3019 20.9578 27.8396 19.8792 27.326L17.9274 32.514C18.5951 32.8735 19.6225 33.2844 21.0093 33.7467C22.3961 34.2604 24.1939 34.5686 26.4026 34.774V40.1674H32.1041V34.62C33.5937 34.3632 34.8265 34.0036 35.8538 33.4387C36.8811 32.8737 37.7029 32.2573 38.3193 31.4868C38.9357 30.7162 39.398 29.8945 39.6548 29.0213C39.9116 28.148 40.0657 27.2235 40.0657 26.2989C40.0657 24.9634 39.8089 23.7819 39.3466 22.806C38.8843 21.8302 38.2166 20.9569 37.3947 20.1865C36.5729 19.4674 35.597 18.7997 34.4669 18.2346C33.3367 17.6695 32.1041 17.1046 30.7686 16.6424C29.8954 16.3342 29.1249 16.0774 28.5086 15.8205C27.8922 15.5637 27.3785 15.3069 26.9676 15.0501C26.5567 14.7932 26.2485 14.485 26.043 14.1255C25.8376 13.7659 25.7348 13.355 25.7348 12.8927C25.7348 12.1222 26.043 11.4545 26.7108 10.9922C27.3272 10.5299 28.4059 10.2731 29.8441 10.2731C31.2823 10.2731 32.6691 10.4271 34.0047 10.7353C35.3403 11.0435 36.4702 11.4031 37.4461 11.814L38.8329 6.36931C38.1652 6.06112 37.292 5.75293 36.1105 5.44474C34.9805 5.13656 33.645 4.9311 32.0527 4.777V0H26.3513V4.87961C25.0158 5.13644 23.8858 5.49599 22.9099 6.00964C21.934 6.52329 21.1635 7.19098 20.5471 7.9102C19.9307 8.68068 19.5198 9.50246 19.2116 10.4271C18.9034 11.3518 18.8007 12.3277 18.8007 13.3036C18.8007 14.5878 19.0575 15.7177 19.5198 16.6424C19.9821 17.5671 20.5985 18.3375 21.3689 18.9538C22.1394 19.5702 23.0126 20.1352 23.9372 20.5461C24.9131 21.0084 25.8891 21.3679 26.865 21.7274C27.8923 22.087 28.8169 22.4465 29.5874 22.7547C30.358 23.0629 31.0257 23.4225 31.5393 23.7307C32.053 24.0902 32.4639 24.4498 32.7207 24.8607C32.9774 25.2716 33.1316 25.7853 33.1316 26.3503C33.1316 27.3263 32.772 28.0454 32.1043 28.559L32.1041 28.5587Z" fill="#64C5CD"/>
</svg>
